<svg xmlns="http://www.w3.org/2000/svg" viewBox="3220 8 187.859 35.063"><defs><style>.a{fill:#ffcb04;}</style></defs><g transform="translate(3220 8)"><g transform="translate(0 0)"><path class="a" d="M16.49,37.911c-2.171-3.381-4.342-6.784-6.512-10.165V35.49c.71-.063,1.065-.1,1.8-.167v6.742C7.848,42.44,3.924,42.858,0,43.275V36.533c.71-.083,1.065-.125,1.8-.188V19.96c-.731.063-1.085.1-1.8.167V13.385q4.79-.532,9.581-1,3.475,5.448,6.909,10.9c2.3-4.049,4.613-8.1,6.909-12.148,3.194-.25,6.408-.5,9.6-.731v6.742c-.71.042-1.085.083-1.8.125V33.653c.71-.063,1.085-.083,1.8-.125V40.27c-3.924.292-7.869.584-11.793.918V34.446c.71-.063,1.065-.083,1.8-.146V26.556C20.831,30.334,18.661,34.133,16.49,37.911Z" transform="translate(0 -8.213)"/><path class="a" d="M195.531,17.546V29.381c-1.586,1.649-3.194,3.319-4.78,4.989-4.383.209-8.788.459-13.171.71-1.586-1.482-3.173-2.964-4.78-4.446V10.324c1.586-1.712,3.173-3.4,4.78-5.114q6.575-.407,13.171-.71c1.586,1.524,3.194,3.047,4.78,4.571V15.73c-2.734.1-5.49.23-8.224.376V12.369c-.376-.376-.564-.543-.939-.918-1.753.083-2.63.146-4.383.23-.4.417-.584.605-.96,1.023V27.189c.4.355.584.522.96.877,1.753-.1,2.63-.146,4.383-.23.376-.4.564-.584.939-.981v-2.8c-.9.042-1.357.063-2.254.125V18.047C188.559,17.859,192.045,17.692,195.531,17.546Z" transform="translate(-136.731 -3.544)"/><path class="a" d="M297.7,5.781c1.607-1.649,3.194-3.319,4.78-4.968,4.383-.125,8.788-.23,13.171-.313,1.586,1.586,3.194,3.152,4.78,4.738v20.31c-1.586,1.607-3.194,3.214-4.78,4.822q-6.606.125-13.171.313c-1.586-1.545-3.173-3.068-4.78-4.592Zm14.507,2.484-.939-.939-4.383.1c-.4.4-.584.605-.96,1V22.918c.4.355.584.543.96.9l4.383-.1.939-.939Z" transform="translate(-235.56 -0.379)"/><path class="a" d="M445.615,16.47v8.746c-1.586,1.565-3.194,3.131-4.78,4.676q-9.268-.125-18.535-.083V23.065h1.8V6.68h-1.8V-.062c6.178-.042,12.357,0,18.535.083,1.586,1.628,3.194,3.256,4.78,4.884v7.619c-.793.772-1.19,1.148-1.983,1.92C444.426,15.259,444.822,15.655,445.615,16.47Zm-8.224-8.788-.96-.96C434.8,6.7,433.968,6.7,432.34,6.7V11c1.628,0,2.463.021,4.091.021.4-.376.584-.564.96-.96Zm0,11.021c-.4-.376-.584-.564-.96-.939-1.628-.021-2.463-.021-4.091-.021v5.344c1.628,0,2.463.021,4.091.021.4-.376.584-.564.96-.918Z" transform="translate(-334.152 0.078)"/><path class="a" d="M558.7,8.234V24.62l5.385.209v-1.8l6.721.313v8.537q-11.052-.532-22.1-.814V24.328c.71.021,1.085.021,1.8.042V7.984c-.71-.021-1.085-.021-1.8-.042V1.2c3.945.1,7.869.23,11.814.376V8.318C559.763,8.276,559.408,8.255,558.7,8.234Z" transform="translate(-434.169 -0.933)"/><path class="a" d="M667.1,11.529c1.586-1.524,3.173-3.027,4.78-4.529q6.575.407,13.15.877c1.586,1.712,3.173,3.444,4.759,5.177v20.31c-1.586,1.461-3.173,2.922-4.759,4.4q-6.575-.47-13.15-.877c-1.586-1.67-3.173-3.361-4.78-5.03Zm14.486,3.8c-.376-.417-.564-.626-.939-1.023-1.753-.125-2.63-.188-4.383-.292-.4.355-.584.543-.96.9V29.4c.4.4.584.584.96.981,1.753.1,2.63.167,4.383.292.376-.355.564-.522.939-.856Z" transform="translate(-527.855 -5.522)"/><path class="a" d="M814.147,31.25V43.085l-4.759,4.258c-4.383-.459-8.746-.877-13.129-1.273-1.586-1.732-3.173-3.444-4.759-5.177V20.583l4.759-4.383q6.575.595,13.129,1.273c1.586,1.774,3.173,3.528,4.759,5.3v6.659c-2.734-.292-5.469-.584-8.182-.856V24.841c-.376-.417-.564-.626-.939-1.065-1.753-.167-2.63-.25-4.362-.417-.4.355-.584.522-.96.877V38.722c.4.417.584.605.96,1.023,1.753.167,2.63.25,4.362.417l.939-.835v-2.8c-.9-.083-1.357-.125-2.254-.23V30.164C807.176,30.5,810.662,30.874,814.147,31.25Z" transform="translate(-626.288 -12.802)"/></g></g></svg>